<?xml version="1.0" encoding="utf-8"?>
<!-- Generator: Adobe Illustrator 24.1.1, SVG Export Plug-In . SVG Version: 6.00 Build 0)  -->
<svg version="1.1" id="Layer_3" xmlns="http://www.w3.org/2000/svg" xmlns:xlink="http://www.w3.org/1999/xlink" x="0px" y="0px"
	 viewBox="0 0 512 512" style="enable-background:new 0 0 512 512;" xml:space="preserve">
<style type="text/css">
	.st0{fill:#DBDBDB;}
</style>
<path class="st0" d="M24,280c0-26.5,21.5-48,47.7-48c2.5,0.2,5.2-0.8,6.9-2.7c1.5-1.7,2.2-4,1.9-6.3c-0.3-2.3-0.5-4.6-0.5-7
	c0-30.9,25.1-56,56-56c10.6,0,21,3,30.1,8.8c2.2,1.4,5,1.6,7.4,0.6s4.2-3.1,4.7-5.7C187.6,119.9,227.1,88,272,88
	c52.9,0,96,43.1,96,96l-0.1,2.7c-0.1,2.9,1.4,5.6,3.9,7.1s5.6,1.5,8.1,0c11-6.4,23.5-9.8,36.1-9.8c39.7,0,72,32.3,72,72
	c0,12.3-3.1,24.2-9,34.7c-16-16.5-38.3-26.7-63-26.7c-11.1,0-22.1,2.1-32.4,6.2C378.6,213,330.5,168,272,168
	c-48.9,0-92.2,32.3-106.8,78.2c-9.2-4.1-19.1-6.2-29.2-6.2c-39.7,0-72,32.3-72,72v0.5c-7.2,0.9-14,3.1-20.3,6.2
	C31.3,309.6,24,295.5,24,280L24,280z M416,424H72c-26.5,0-48-21.5-48-48s21.5-48,47.7-48c2.5,0.2,5.2-0.8,6.9-2.7
	c1.5-1.7,2.2-4,1.9-6.3c-0.3-2.3-0.5-4.6-0.5-7c0-30.9,25.1-56,56-56c10.6,0,21,3,30.1,8.8c2.2,1.4,5,1.6,7.4,0.6s4.2-3.1,4.7-5.7
	c9.4-43.9,48.9-75.7,93.8-75.7c52.9,0,96,43.1,96,96l-0.1,2.7c-0.1,2.9,1.4,5.6,3.9,7.1s5.6,1.5,8.1,0c11-6.4,23.5-9.8,36.1-9.8
	c39.7,0,72,32.3,72,72S455.7,424,416,424L416,424z"/>
</svg>
