<?xml version="1.0" encoding="utf-8"?>
<!-- Generator: Adobe Illustrator 24.1.1, SVG Export Plug-In . SVG Version: 6.00 Build 0)  -->
<svg version="1.1" id="Layer_1" xmlns="http://www.w3.org/2000/svg" xmlns:xlink="http://www.w3.org/1999/xlink" x="0px" y="0px"
	 viewBox="0 0 512 512" style="enable-background:new 0 0 512 512;" xml:space="preserve">
<style type="text/css">
	.st0{fill:#F29C1F;}
	.st1{fill:#E57E25;}
	.st2{fill:#F0C419;}
	.st3{fill:#7F8C8D;}
	.st4{fill:#95A5A5;}
</style>
<g id="Page-1">
	<g id="_x30_19---Sunny-and-Fog" transform="translate(-1)">
		<path id="Shape" class="st0" d="M402.3,263.9c-1.9,1.9-2.7,4.7-2,7.3l13.4,54.1c1,4-1.3,8.1-5.3,9.3l-53.7,15.4
			c-2.6,0.8-4.6,2.8-5.3,5.4l-14,51.8c-1.1,4-5.2,6.5-9.3,5.5l-54.1-13.4c-2.6-0.7-5.4,0.1-7.3,2l-37.8,37.8c-3,3-7.9,3-11,0
			l-37.8-37.8c-1.9-1.9-4.7-2.7-7.3-2l-54,13.4c-4.1,1-8.2-1.4-9.3-5.5l-13.9-51.8c-0.7-2.6-2.7-4.6-5.3-5.4l-53.5-15.4
			c-4-1.2-6.4-5.4-5.3-9.4l13.9-51.7c0.7-2.6-0.1-5.4-1.9-7.3L2.9,226c-2.9-3-2.9-7.7,0-10.7l38.8-40.2c1.9-1.9,2.6-4.7,1.9-7.3
			l-13.9-51.7c-1.1-4.1,1.3-8.2,5.3-9.4l53.5-15.4c2.6-0.8,4.6-2.8,5.3-5.4l14-51.8c1.1-4,5.2-6.5,9.3-5.5l54,13.4
			c2.6,0.7,5.4-0.1,7.3-2l37.8-37.8c3-3,7.9-3,11,0L264.9,40c1.9,1.9,4.7,2.7,7.3,2l54.1-13.4c4-1,8.1,1.3,9.3,5.3l15.4,53.7
			c0.8,2.6,2.8,4.6,5.4,5.3l51.8,14c4,1.1,6.5,5.2,5.5,9.3l-13.4,54.1c-0.7,2.6,0.1,5.4,2,7.3l37.8,37.8c3,3,3,7.9,0,11L402.3,263.9
			z"/>
		<circle id="Oval" class="st1" cx="221.7" cy="220.7" r="167.7"/>
		<circle id="Oval_1_" class="st2" cx="221.7" cy="220.7" r="150.1"/>
		<path id="Shape_2_" class="st3" d="M513,379.6c0,14.6-11.9,26.5-26.5,26.5H380.6c14.6,0,26.5,11.9,26.5,26.5S395.2,459,380.6,459
			h70.6c14.6,0,26.5,11.9,26.5,26.5S465.8,512,451.2,512H292.3c-14.6,0-26.5-11.9-26.5-26.5s11.9-26.5,26.5-26.5h-53
			c-14.6,0-26.5-11.9-26.5-26.5s11.9-26.5,26.5-26.5H204c-14.6,0-26.5-11.9-26.5-26.5s11.9-26.5,26.5-26.5h53
			c-14.6,0-26.5-11.9-26.5-26.5s11.9-26.5,26.5-26.5h44.1c-14.6,0-26.5-11.9-26.5-26.5s11.9-26.5,26.5-26.5h123.6
			c14.6,0,26.5,11.9,26.5,26.5c0,14.6-11.9,26.5-26.5,26.5H460c14.6,0,26.5,11.9,26.5,26.5s-11.9,26.5-26.5,26.5h26.5
			c7,0,13.8,2.8,18.7,7.8C510.2,365.8,513,372.6,513,379.6z"/>
		<path id="Shape_3_" class="st3" d="M460,379.6c0,14.6-11.9,26.5-26.5,26.5H327.6c14.6,0,26.5,11.9,26.5,26.5S342.2,459,327.6,459
			h70.6c14.6,0,26.5,11.9,26.5,26.5S412.9,512,398.2,512H292.3c-14.6,0-26.5-11.9-26.5-26.5s11.9-26.5,26.5-26.5h-53
			c-14.6,0-26.5-11.9-26.5-26.5s11.9-26.5,26.5-26.5H204c-14.6,0-26.5-11.9-26.5-26.5s11.9-26.5,26.5-26.5h53
			c-14.6,0-26.5-11.9-26.5-26.5s11.9-26.5,26.5-26.5h44.1c-14.6,0-26.5-11.9-26.5-26.5s11.9-26.5,26.5-26.5h70.6
			c14.6,0,26.5,11.9,26.5,26.5c0,14.6-11.9,26.5-26.5,26.5h35.3c14.6,0,26.5,11.9,26.5,26.5s-11.9,26.5-26.5,26.5h26.5
			c7,0,13.8,2.8,18.7,7.8C457.2,365.8,460,372.6,460,379.6z"/>
		<path id="Shape_4_" class="st4" d="M424.7,485.5c0,14.6-11.9,26.5-26.5,26.5h-44.1c-14.6,0-26.5-11.9-26.5-26.5
			s11.9-26.5,26.5-26.5h44.1C412.9,459,424.7,470.9,424.7,485.5z"/>
		<path id="Shape_5_" class="st4" d="M460,379.6c0,14.6-11.9,26.5-26.5,26.5H327.6c14.6,0,26.5,11.9,26.5,26.5S342.2,459,327.6,459
			h-26.5c-14.6,0-26.5-11.9-26.5-26.5s11.9-26.5,26.5-26.5h-35.3c-14.6,0-26.5-11.9-26.5-26.5s11.9-26.5,26.5-26.5h53
			c-14.6,0-26.5-11.9-26.5-26.5s11.9-26.5,26.5-26.5h44.1c-14.6,0-26.5-11.9-26.5-26.5s11.9-26.5,26.5-26.5h8.8
			c14.6,0,26.5,11.9,26.5,26.5c0,14.6-11.9,26.5-26.5,26.5h35.3c14.6,0,26.5,11.9,26.5,26.5s-11.9,26.5-26.5,26.5h26.5
			c7,0,13.8,2.8,18.7,7.8C457.2,365.8,460,372.6,460,379.6z"/>
	</g>
</g>
</svg>
