<?xml version="1.0" encoding="utf-8"?>
<!-- Generator: Adobe Illustrator 24.1.1, SVG Export Plug-In . SVG Version: 6.00 Build 0)  -->
<svg version="1.1" id="Capa_1" xmlns="http://www.w3.org/2000/svg" xmlns:xlink="http://www.w3.org/1999/xlink" x="0px" y="0px"
	 viewBox="0 0 448.8 448.8" style="enable-background:new 0 0 448.8 448.8;" xml:space="preserve">
<style type="text/css">
	.st0{fill:#37D6FF;}
</style>
<g>
	<path class="st0" d="M85.8,161.3c15.4,0,29.8-7.6,39.5-20c9.7,12.4,24.1,20,39.5,20s29.8-7.6,39.5-20c9.7,12.4,24.1,20,39.5,20
		s29.8-7.6,39.5-20c9.7,12.4,24.1,20,39.5,20c15.4,0,29.8-7.6,39.5-20c9.7,12.4,24.1,20,39.5,20c22.2,0,38.6-12.3,46.1-34.6
		c1.8-5.2-1-10.9-6.3-12.7c-5.2-1.8-10.9,1-12.7,6.3c-4.8,14.1-13.7,21-27.2,21c-13.1,0-25.1-9.5-29.9-23.7
		c-1.4-4.2-5.3-6.8-9.5-6.8c-0.1,0-0.1,0-0.2,0c0,0-0.1,0-0.1,0c-4.2,0-8.1,2.6-9.5,6.8c-4.8,14.2-16.8,23.7-29.9,23.7
		c-13.1,0-25.1-9.5-29.9-23.7c-1.4-4.2-5.3-6.8-9.5-6.8c-0.1,0-0.1,0-0.2,0c0,0-0.1,0-0.1,0c-4.2,0-8.1,2.6-9.5,6.8
		c-4.8,14.2-16.8,23.7-29.9,23.7c-13.1,0-25.1-9.5-29.9-23.7c-1.4-4.2-5.3-6.8-9.5-6.8c-0.1,0-0.1,0-0.2,0c0,0-0.1,0-0.1,0
		c-4.2,0-8.1,2.6-9.5,6.8c-4.8,14.2-16.8,23.7-29.9,23.7s-25.1-9.5-29.9-23.7c-1.4-4.2-5.3-6.8-9.5-6.8c-0.1,0-0.1,0-0.2,0
		c0,0-0.1,0-0.1,0c-4.2,0-8.1,2.6-9.5,6.8c-4.8,14.2-16.8,23.7-29.9,23.7c-13.5,0-22.4-6.9-27.2-21c-1.8-5.2-7.4-8-12.7-6.3
		c-5.2,1.8-8,7.4-6.3,12.7C47.3,149,63.6,161.3,85.8,161.3z"/>
	<path class="st0" d="M86.2,229.6c9.7,12.4,24.1,20,39.5,20s29.8-7.6,39.5-20c9.7,12.4,24.1,20,39.5,20s29.8-7.6,39.5-20
		c9.7,12.4,24.1,20,39.5,20s29.8-7.6,39.5-20c9.7,12.4,24.1,20,39.5,20c22.2,0,38.6-12.3,46.1-34.6c1.8-5.2-1-10.9-6.3-12.7
		c-5.2-1.8-10.9,1-12.7,6.3c-4.8,14.1-13.7,21-27.2,21c-13.1,0-25.1-9.5-29.9-23.7c-1.4-4.2-5.3-6.8-9.5-6.8c-0.1,0-0.1,0-0.2,0
		c0,0-0.1,0-0.1,0c-4.2,0-8.1,2.6-9.5,6.8c-4.8,14.2-16.8,23.7-29.9,23.7s-25.1-9.5-29.9-23.7c-1.4-4.2-5.3-6.8-9.5-6.8
		c-0.1,0-0.1,0-0.2,0c0,0-0.1,0-0.1,0c-4.2,0-8.1,2.6-9.5,6.8c-4.8,14.2-16.8,23.7-29.9,23.7s-25.1-9.5-29.9-23.7
		c-1.4-4.2-5.3-6.8-9.5-6.8c-0.1,0-0.1,0-0.2,0c0,0-0.1,0-0.1,0c-4.2,0-8.1,2.6-9.5,6.8c-4.8,14.2-16.8,23.7-29.9,23.7
		s-25.1-9.5-29.9-23.7c-1.4-4.2-5.3-6.8-9.5-6.8c-0.1,0-0.1,0-0.2,0c0,0-0.1,0-0.1,0c-4.2,0-8.1,2.6-9.5,6.8
		c-4.8,14.2-16.8,23.7-29.9,23.7c-13.5,0-22.4-6.9-27.2-21c-1.8-5.2-7.4-8-12.7-6.3c-5.2,1.8-8,7.4-6.3,12.7
		c7.6,22.3,23.9,34.6,46.1,34.6C62.1,249.7,76.4,242.1,86.2,229.6z"/>
	<path class="st0" d="M442,290.8c-5.2-1.8-10.9,1-12.7,6.3c-4.8,14.1-13.7,21-27.2,21c-13.1,0-25.1-9.5-29.9-23.7
		c-1.4-4.2-5.3-6.8-9.5-6.8c-0.1,0-0.1,0-0.2,0c0,0-0.1,0-0.1,0c-4.2,0-8.1,2.6-9.5,6.8c-4.8,14.2-16.8,23.7-29.9,23.7
		c-13.1,0-25.1-9.5-29.9-23.7c-1.4-4.2-5.3-6.8-9.5-6.8c-0.1,0-0.1,0-0.2,0c0,0-0.1,0-0.1,0c-4.2,0-8.1,2.6-9.5,6.8
		c-4.8,14.2-16.8,23.7-29.9,23.7c-13.1,0-25.1-9.5-29.9-23.7c-1.4-4.2-5.3-6.8-9.5-6.8c-0.1,0-0.1,0-0.2,0c0,0-0.1,0-0.1,0
		c-4.2,0-8.1,2.6-9.5,6.8c-4.8,14.2-16.8,23.7-29.9,23.7s-25.1-9.5-29.9-23.7c-1.4-4.2-5.3-6.8-9.5-6.8c-0.1,0-0.1,0-0.2,0
		c0,0-0.1,0-0.1,0c-4.2,0-8.1,2.6-9.5,6.8c-4.8,14.2-16.8,23.7-29.9,23.7c-13.5,0-22.4-6.9-27.2-21c-1.8-5.2-7.4-8-12.7-6.3
		c-5.2,1.8-8,7.4-6.3,12.7c7.6,22.3,23.9,34.6,46.1,34.6c15.4,0,29.8-7.6,39.5-20c9.7,12.4,24.1,20,39.5,20s29.8-7.6,39.5-20
		c9.7,12.4,24.1,20,39.5,20s29.8-7.6,39.5-20c9.7,12.4,24.1,20,39.5,20s29.8-7.6,39.5-20c9.7,12.4,24.1,20,39.5,20
		c22.2,0,38.6-12.3,46.1-34.6C450.1,298.3,447.3,292.6,442,290.8z"/>
</g>
</svg>
