<?xml version="1.0" encoding="utf-8"?>
<!-- Generator: Adobe Illustrator 24.1.1, SVG Export Plug-In . SVG Version: 6.00 Build 0)  -->
<svg version="1.1" id="Capa_1" xmlns="http://www.w3.org/2000/svg" xmlns:xlink="http://www.w3.org/1999/xlink" x="0px" y="0px"
	 viewBox="0 0 480.3 480.3" style="enable-background:new 0 0 480.3 480.3;" xml:space="preserve">
<style type="text/css">
	.st0{fill:#E6D219;}
</style>
<g>
	<g>
		<path class="st0" d="M472.3,308.1h-96.4c-4.2-74.9-68.4-132.2-143.3-127.9c-69,3.9-124,59-127.9,127.9H8.3c-4.4,0-8,3.6-8,8
			s3.6,8,8,8h464c4.4,0,8-3.6,8-8S476.7,308.1,472.3,308.1z M120.7,308.1c4.2-63,56.5-111.9,119.6-112c63.1,0.1,115.4,49,119.6,112
			H120.7z"/>
	</g>
</g>
<g>
	<g>
		<path class="st0" d="M368.3,340.1h-264c-4.4,0-8,3.6-8,8s3.6,8,8,8h264c4.4,0,8-3.6,8-8S372.7,340.1,368.3,340.1z"/>
	</g>
</g>
<g>
	<g>
		<path class="st0" d="M344.3,372.1h-216c-4.4,0-8,3.6-8,8s3.6,8,8,8h216c4.4,0,8-3.6,8-8S348.7,372.1,344.3,372.1z"/>
	</g>
</g>
<g>
	<g>
		<path class="st0" d="M320.3,404.1h-168c-4.4,0-8,3.6-8,8s3.6,8,8,8h168c4.4,0,8-3.6,8-8S324.7,404.1,320.3,404.1z"/>
	</g>
</g>
<g>
	<g>
		<path class="st0" d="M288.3,436.1h-104c-4.4,0-8,3.6-8,8s3.6,8,8,8h104c4.4,0,8-3.6,8-8S292.7,436.1,288.3,436.1z"/>
	</g>
</g>
<g>
	<g>
		<path class="st0" d="M88.3,284.1h-80c-4.4,0-8,3.6-8,8s3.6,8,8,8h80c4.4,0,8-3.6,8-8S92.7,284.1,88.3,284.1z"/>
	</g>
</g>
<g>
	<g>
		<path class="st0" d="M99.6,228.8c-0.2-0.1-0.4-0.1-0.5-0.2l-88-32c-4.1-1.7-8.8,0.3-10.4,4.4c-1.7,4.1,0.3,8.8,4.4,10.4
			c0.2,0.1,0.4,0.1,0.5,0.2l88,32c4.1,1.7,8.8-0.3,10.4-4.4C105.6,235.2,103.7,230.5,99.6,228.8z"/>
	</g>
</g>
<g>
	<g>
		<path class="st0" d="M183.6,145l-24-56c-1.8-4-6.5-5.8-10.6-4.1c-4,1.8-5.8,6.4-4.1,10.4l24,56c1.3,2.9,4.2,4.8,7.4,4.8
			c1.1,0,2.2-0.2,3.2-0.6C183.5,153.7,185.4,149,183.6,145z"/>
	</g>
</g>
<g>
	<g>
		<path class="st0" d="M323.4,84.8c-4.1-1.7-8.8,0.1-10.5,4.2l-24,56c-1.7,4.1,0.1,8.8,4.2,10.5c1,0.4,2.1,0.7,3.2,0.6
			c3.2,0,6.1-1.9,7.4-4.8l24-56C329.4,91.2,327.5,86.5,323.4,84.8z"/>
	</g>
</g>
<g>
	<g>
		<path class="st0" d="M479.3,184.3c-2.1-3.9-7-5.3-10.9-3.2l-88,48c-3.9,2.1-5.3,7-3.2,10.9c1.4,2.6,4.1,4.2,7,4.2
			c1.3,0,2.7-0.3,3.8-1l88-48C480,193,481.4,188.2,479.3,184.3z"/>
	</g>
</g>
<g>
	<g>
		<path class="st0" d="M141.9,182.5l-80-80c-3.2-3.1-8.2-3-11.3,0.2c-3,3.1-3,8,0,11.1l80,80c3.2,3.1,8.2,3,11.3-0.2
			C144.9,190.5,144.9,185.6,141.9,182.5z"/>
	</g>
</g>
<g>
	<g>
		<path class="st0" d="M240.3,28.1c-4.4,0-8,3.6-8,8v104c0,4.4,3.6,8,8,8s8-3.6,8-8v-104C248.3,31.7,244.7,28.1,240.3,28.1z"/>
	</g>
</g>
<g>
	<g>
		<path class="st0" d="M429.9,102.5c-3.1-3.1-8.2-3.1-11.3,0l-80,80c-3.2,3.1-3.3,8.1-0.2,11.3c3.1,3.2,8.1,3.3,11.3,0.2
			c0.1-0.1,0.1-0.1,0.2-0.2l80-80C433.1,110.7,433.1,105.6,429.9,102.5z"/>
	</g>
</g>
<g>
	<g>
		<path class="st0" d="M472.3,284.1h-80c-4.4,0-8,3.6-8,8s3.6,8,8,8h80c4.4,0,8-3.6,8-8S476.7,284.1,472.3,284.1z"/>
	</g>
</g>
</svg>
