<?xml version="1.0" encoding="utf-8"?>
<!-- Generator: Adobe Illustrator 24.1.1, SVG Export Plug-In . SVG Version: 6.00 Build 0)  -->
<svg version="1.1" id="Capa_1" xmlns="http://www.w3.org/2000/svg" xmlns:xlink="http://www.w3.org/1999/xlink" x="0px" y="0px"
	 viewBox="0 0 512 512" style="enable-background:new 0 0 512 512;" xml:space="preserve">
<style type="text/css">
	.st0{fill:#C4B743;}
	.st1{fill:#FFFFFF;}
</style>
<g>
	<g>
		<rect y="290.1" class="st0" width="512" height="17.1"/>
	</g>
</g>
<g>
	<g>
		<rect x="324.3" y="341.3" class="st0" width="102.4" height="17.1"/>
	</g>
</g>
<g>
	<g>
		<rect x="162.1" y="341.3" class="st0" width="145.1" height="17.1"/>
	</g>
</g>
<g>
	<g>
		<rect x="85.3" y="341.3" class="st0" width="59.7" height="17.1"/>
	</g>
</g>
<g>
	<g>
		<rect x="230.4" y="392.5" class="st0" width="162.1" height="17.1"/>
	</g>
</g>
<g>
	<g>
		<rect x="119.5" y="392.5" class="st0" width="93.9" height="17.1"/>
	</g>
</g>
<g>
	<g>
		<rect x="196.3" y="443.7" class="st0" width="170.7" height="17.1"/>
	</g>
</g>
<g>
	<g>
		<rect x="145.1" y="443.7" class="st0" width="34.1" height="17.1"/>
	</g>
</g>
<g>
	<g>
		<rect x="187.7" y="494.9" class="st0" width="136.5" height="17.1"/>
	</g>
</g>
<g>
	<g>
		<path class="st0" d="M420.3,159.1C380.9,68.5,275.1,26.8,184.5,66.3C93.9,105.7,52.3,211.5,91.7,302.1l15.7-6.8
			c-17.3-39.7-18-83.8-2.2-124.1c15.9-40.3,46.5-72,86.2-89.3c82-35.7,177.7,2,213.4,84c17.9,41.1,17.9,88.2,0,129.3l15.6,6.8
			C440.1,256.6,440.1,204.5,420.3,159.1z"/>
	</g>
</g>
<g>
	<g>
		<path class="st1" d="M34.1,13.6C24.9,4.8,12.8,0,0,0v17.1c8.7,0,16.9,3.4,23.1,9.5l5,5c1.7,1.7,3.8,2.5,6,2.5c2.2,0,4.4-0.8,6-2.5
			l5-5c6.2-6.2,14.4-9.5,23.1-9.5V0C55.5,0,43.4,4.8,34.1,13.6z"/>
	</g>
</g>
<g>
	<g>
		<path class="st1" d="M59.7,73.3c-9.3-8.8-21.3-13.6-34.1-13.6v17.1c8.7,0,16.9,3.4,23.1,9.5l5,5c1.7,1.7,3.8,2.5,6,2.5
			s4.4-0.8,6-2.5l5-5c6.2-6.2,14.4-9.5,23.1-9.5V59.7C81.1,59.7,69,64.5,59.7,73.3z"/>
	</g>
</g>
<g>
	<g>
		<path class="st1" d="M119.5,30.6c-9.3-8.8-21.3-13.6-34.1-13.6v17.1c8.7,0,16.9,3.4,23.1,9.5l5,5c1.7,1.7,3.8,2.5,6,2.5
			s4.4-0.8,6-2.5l5-5c6.2-6.2,14.4-9.5,23.1-9.5V17.1C140.8,17.1,128.7,21.9,119.5,30.6z"/>
	</g>
</g>
</svg>
