<?xml version="1.0" encoding="utf-8"?>
<!-- Generator: Adobe Illustrator 24.1.1, SVG Export Plug-In . SVG Version: 6.00 Build 0)  -->
<svg version="1.1" id="Capa_1" xmlns="http://www.w3.org/2000/svg" xmlns:xlink="http://www.w3.org/1999/xlink" x="0px" y="0px"
	 viewBox="0 0 448 448" style="enable-background:new 0 0 448 448;" xml:space="preserve">
<style type="text/css">
	.st0{fill:#FFFFFF;}
</style>
<g>
	<g>
		<path class="st0" d="M384,112c-35.3,0-64,28.7-64,64c0,8.8,7.2,16,16,16s16-7.2,16-16c0-17.6,14.4-32,32-32s32,14.4,32,32
			s-14.4,32-32,32H17.3c-8.8,0-16,7.2-16,16s7.2,16,16,16H384c35.3,0,64-28.7,64-64S419.3,112,384,112z"/>
	</g>
</g>
<g>
	<g>
		<path class="st0" d="M224,48c-35.3,0-64,28.7-64,64c0,8.8,7.2,16,16,16s16-7.2,16-16c0-17.6,14.4-32,32-32s32,14.4,32,32
			s-14.4,32-32,32H16c-8.8,0-16,7.2-16,16s7.2,16,16,16h208c35.3,0,64-28.7,64-64S259.3,48,224,48z"/>
	</g>
</g>
<g>
	<g>
		<path class="st0" d="M224,272H16c-8.8,0-16,7.2-16,16s7.2,16,16,16h208c17.6,0,32,14.4,32,32s-14.4,32-32,32s-32-14.4-32-32
			c0-8.8-7.2-16-16-16s-16,7.2-16,16c0,35.3,28.7,64,64,64s64-28.7,64-64S259.3,272,224,272z"/>
	</g>
</g>
</svg>
