<?xml version="1.0" encoding="utf-8"?>
<!-- Generator: Adobe Illustrator 24.1.1, SVG Export Plug-In . SVG Version: 6.00 Build 0)  -->
<svg version="1.1" id="Layer_1" xmlns="http://www.w3.org/2000/svg" xmlns:xlink="http://www.w3.org/1999/xlink" x="0px" y="0px"
	 viewBox="0 0 300.6 59.2" style="enable-background:new 0 0 300.6 59.2;" xml:space="preserve">
<style type="text/css">
	.st0{fill:#EA5643;stroke:#EA5643;stroke-miterlimit:10;}
	.st1{fill:#F9F6E5;stroke:#F9F6E5;stroke-miterlimit:10;}
</style>
<g>
	<path class="st0" d="M45,18.5c0-0.4,0.3-0.6,0.6-0.6H46c0.4,0,0.6,0.1,0.7,0.5L54,34.3c0.6,1.3,1.3,2.9,1.3,2.9h0.1
		c0,0,0.7-1.7,1.3-2.9l7.4-15.9c0.1-0.3,0.4-0.5,0.7-0.5h0.4c0.4,0,0.6,0.2,0.6,0.6l2,24.8c0,0.4-0.2,0.7-0.6,0.7h-0.3
		c-0.4,0-0.6-0.2-0.6-0.6l-1.6-19.3c-0.1-1.3-0.1-3.5-0.1-3.5h-0.1c0,0-0.7,2.2-1.3,3.5l-6.7,14.4c-0.1,0.3-0.4,0.5-0.7,0.5h-0.6
		c-0.4,0-0.6-0.1-0.7-0.5l-6.7-14.4c-0.6-1.2-1.4-3.5-1.4-3.5h-0.1c0,0,0,2.3-0.1,3.5l-1.7,19.4c0,0.4-0.3,0.6-0.6,0.6h-0.4
		c-0.4,0-0.6-0.2-0.6-0.7L45,18.5z"/>
	<path class="st0" d="M81.1,18.5c0.1-0.4,0.4-0.5,0.7-0.5h0.7c0.3,0,0.6,0.1,0.7,0.5l9.3,24.8c0.1,0.4,0,0.7-0.5,0.7h-0.4
		c-0.3,0-0.6-0.1-0.7-0.5L87.6,35h-11l-3.2,8.5C73.3,43.9,73,44,72.7,44h-0.4c-0.5,0-0.7-0.3-0.5-0.7L81.1,18.5z M87.1,33.5l-4-10.6
		c-0.4-1.1-1-3.1-1-3.1H82c0,0-0.6,2-1,3.1l-4,10.6H87.1z"/>
	<path class="st0" d="M100.9,32.7l-8.4-14c-0.3-0.4-0.1-0.7,0.4-0.7h0.4c0.3,0,0.6,0.1,0.7,0.4l5.9,9.9c0.7,1.3,1.6,2.9,1.6,2.9h0.1
		c0,0,0.8-1.7,1.6-2.9l5.9-9.9c0.2-0.3,0.4-0.4,0.7-0.4h0.4c0.5,0,0.7,0.3,0.4,0.7l-8.4,14v10.7c0,0.4-0.2,0.6-0.6,0.6h-0.1
		c-0.4,0-0.6-0.2-0.6-0.6V32.7z"/>
	<path class="st1" d="M115.8,18.6c0-0.4,0.2-0.6,0.6-0.6h0.4c0.3,0,0.6,0.1,0.8,0.4l14.6,20.1c0.9,1.2,2.1,3.3,2.1,3.3h0.1
		c0,0-0.2-2-0.2-3.3V18.6c0-0.4,0.2-0.6,0.6-0.6h0.3c0.4,0,0.6,0.2,0.6,0.6v24.8c0,0.4-0.2,0.6-0.6,0.6h-0.4c-0.3,0-0.6-0.1-0.8-0.4
		l-14.6-20.1c-0.9-1.2-2.1-3.3-2.1-3.3h-0.1c0,0,0.2,2,0.2,3.3v19.8c0,0.4-0.2,0.6-0.6,0.6h-0.3c-0.4,0-0.6-0.2-0.6-0.6L115.8,18.6
		L115.8,18.6z"/>
	<path class="st1" d="M154.9,17.5c7.5,0,13.2,5.8,13.2,13.3c0,7.7-5.7,13.7-13.2,13.7s-13.2-6-13.2-13.7
		C141.7,23.3,147.4,17.5,154.9,17.5z M154.9,43c6.6,0,11.5-5.3,11.5-12.2c0-6.7-4.9-11.8-11.5-11.8s-11.5,5.1-11.5,11.8
		C143.4,37.7,148.3,43,154.9,43z"/>
	<path class="st1" d="M185.4,17.5c7.5,0,13.2,5.8,13.2,13.3c0,7.7-5.7,13.7-13.2,13.7s-13.2-6-13.2-13.7
		C172.2,23.3,177.9,17.5,185.4,17.5z M185.4,43c6.6,0,11.5-5.3,11.5-12.2c0-6.7-4.9-11.8-11.5-11.8s-11.5,5.1-11.5,11.8
		C173.9,37.7,178.8,43,185.4,43z"/>
	<path class="st1" d="M208.9,19.4h-9.1c-0.4,0-0.6-0.2-0.6-0.6v-0.2c0-0.4,0.2-0.6,0.6-0.6h19.8c0.4,0,0.6,0.2,0.6,0.6v0.2
		c0,0.4-0.2,0.6-0.6,0.6h-9.1v24c0,0.4-0.2,0.6-0.6,0.6h-0.4c-0.4,0-0.6-0.2-0.6-0.6L208.9,19.4L208.9,19.4z"/>
	<path class="st1" d="M224.3,18.6c0-0.4,0.2-0.6,0.6-0.6h0.3c0.4,0,0.6,0.2,0.6,0.6v11.6h16.7V18.6c0-0.4,0.2-0.6,0.6-0.6h0.3
		c0.4,0,0.6,0.2,0.6,0.6v24.8c0,0.4-0.2,0.6-0.6,0.6h-0.3c-0.4,0-0.6-0.2-0.6-0.6V31.7h-16.6v11.7c0,0.4-0.2,0.6-0.6,0.6H225
		c-0.4,0-0.6-0.2-0.6-0.6L224.3,18.6L224.3,18.6z"/>
</g>
</svg>
