<?xml version="1.0" encoding="utf-8"?>
<!-- Generator: Adobe Illustrator 24.1.1, SVG Export Plug-In . SVG Version: 6.00 Build 0)  -->
<svg version="1.1" id="Layer_1" xmlns="http://www.w3.org/2000/svg" xmlns:xlink="http://www.w3.org/1999/xlink" x="0px" y="0px"
	 viewBox="0 0 24 24" style="enable-background:new 0 0 24 24;" xml:space="preserve">
<style type="text/css">
	.st0{fill:#FFFFFF;}
</style>
<path class="st0" d="M19,0H5C2.2,0,0,2.2,0,5v14c0,2.8,2.2,5,5,5h14c2.8,0,5-2.2,5-5V5C24,2.2,21.8,0,19,0z M12,20
	c-0.8,0-1.6-0.1-2.4-0.4c0.3-0.5,0.8-1.4,1-2.1l0.5-1.9c0.3,0.5,1,0.9,1.8,0.9c2.4,0,4.2-2.2,4.2-5C17.1,8.9,15,7,12.2,7
	c-3.5,0-5.3,2.3-5.3,4.8c0,1.2,0.6,2.6,1.6,3.1c0.2,0.1,0.2,0,0.3-0.1L9,13.9c0-0.1,0-0.1-0.1-0.2c-0.3-0.4-0.6-1.1-0.6-1.8
	c0-1.8,1.3-3.5,3.6-3.5c2,0,3.3,1.3,3.3,3.3c0,2.2-1.1,3.7-2.5,3.7c-0.8,0-1.4-0.6-1.2-1.4c0.2-1,0.7-2,0.7-2.7c0-0.6-0.3-1.1-1-1.1
	c-0.8,0-1.4,0.8-1.4,1.9c0,0.7,0.2,1.2,0.2,1.2s-0.8,3.4-0.9,4c-0.2,0.7-0.1,1.7,0,2.3C6.1,18.3,4,15.4,4,12c0-4.4,3.6-8,8-8
	s8,3.6,8,8S16.4,20,12,20z"/>
</svg>
